<svg xmlns="http://www.w3.org/2000/svg" viewBox="0 0 650 300" width="650" height="300">
  <rect width="650" height="300" fill="#1E1E2E" rx="8"/>
  <text x="325" y="28" text-anchor="middle" fill="#E0E0E0" font-size="14" font-weight="bold">English Letter Frequency Distribution</text>
  <line x1="60" y1="50" x2="60" y2="260" stroke="#444466" stroke-width="1"/>
  <line x1="60" y1="260" x2="630" y2="260" stroke="#444466" stroke-width="1"/>
  <line x1="60" y1="214" x2="630" y2="214" stroke="#333355" stroke-width="0.5" stroke-dasharray="4,4"/>
  <line x1="60" y1="167" x2="630" y2="167" stroke="#333355" stroke-width="0.5" stroke-dasharray="4,4"/>
  <line x1="60" y1="120" x2="630" y2="120" stroke="#333355" stroke-width="0.5" stroke-dasharray="4,4"/>
  <line x1="60" y1="73" x2="630" y2="73" stroke="#333355" stroke-width="0.5" stroke-dasharray="4,4"/>
  <text x="50" y="263" text-anchor="end" fill="#888888" font-size="9">0%</text>
  <text x="50" y="217" text-anchor="end" fill="#888888" font-size="9">3%</text>
  <text x="50" y="170" text-anchor="end" fill="#888888" font-size="9">6%</text>
  <text x="50" y="124" text-anchor="end" fill="#888888" font-size="9">9%</text>
  <text x="50" y="76" text-anchor="end" fill="#888888" font-size="9">12%</text>
  <rect x="70"  y="51"  width="18" height="209" fill="#4CAF50" rx="2"><title>E: 12.7%</title></rect>
  <rect x="92"  y="110" width="18" height="150" fill="#66BB6A" rx="2"><title>T: 9.1%</title></rect>
  <rect x="114" y="125" width="18" height="135" fill="#81C784" rx="2"><title>A: 8.2%</title></rect>
  <rect x="136" y="136" width="18" height="124" fill="#A5D6A7" rx="2"><title>O: 7.5%</title></rect>
  <rect x="158" y="144" width="18" height="116" fill="#A5D6A7" rx="2"><title>I: 7.0%</title></rect>
  <rect x="180" y="149" width="18" height="111" fill="#C8E6C9" rx="2"><title>N: 6.7%</title></rect>
  <rect x="202" y="156" width="18" height="104" fill="#C8E6C9" rx="2"><title>S: 6.3%</title></rect>
  <rect x="224" y="159" width="18" height="101" fill="#C8E6C9" rx="2"><title>H: 6.1%</title></rect>
  <rect x="246" y="161" width="18" height="99"  fill="#E8F5E9" rx="2"><title>R: 6.0%</title></rect>
  <rect x="268" y="189" width="18" height="71" fill="#FFB74D" rx="2"><title>D: 4.3%</title></rect>
  <rect x="290" y="194" width="18" height="66" fill="#FFB74D" rx="2"><title>L: 4.0%</title></rect>
  <rect x="312" y="214" width="18" height="46" fill="#FFCC80" rx="2"><title>C: 2.8%</title></rect>
  <rect x="334" y="214" width="18" height="46" fill="#FFCC80" rx="2"><title>U: 2.8%</title></rect>
  <rect x="356" y="219" width="18" height="41" fill="#FFCC80" rx="2"><title>M: 2.5%</title></rect>
  <rect x="378" y="220" width="18" height="40" fill="#FFE0B2" rx="2"><title>W: 2.4%</title></rect>
  <rect x="400" y="224" width="18" height="36" fill="#FFE0B2" rx="2"><title>F: 2.2%</title></rect>
  <rect x="422" y="227" width="18" height="33" fill="#FFE0B2" rx="2"><title>G: 2.0%</title></rect>
  <rect x="444" y="227" width="18" height="33" fill="#FFE0B2" rx="2"><title>Y: 2.0%</title></rect>
  <rect x="466" y="229" width="18" height="31" fill="#FFF3E0" rx="2"><title>P: 1.9%</title></rect>
  <rect x="488" y="235" width="18" height="25" fill="#FFF3E0" rx="2"><title>B: 1.5%</title></rect>
  <rect x="510" y="243" width="18" height="17" fill="#FFF3E0" rx="2"><title>V: 1.0%</title></rect>
  <rect x="532" y="247" width="18" height="13" fill="#EF9A9A" rx="2"><title>K: 0.8%</title></rect>
  <rect x="554" y="257" width="18" height="3"  fill="#EF9A9A" rx="1"><title>J: 0.15%</title></rect>
  <rect x="576" y="257" width="18" height="3"  fill="#EF9A9A" rx="1"><title>X: 0.15%</title></rect>
  <rect x="598" y="258" width="17" height="2"  fill="#EF9A9A" rx="1"><title>Q: 0.10%</title></rect>
  <rect x="615" y="259" width="17" height="1"  fill="#EF9A9A" rx="0"><title>Z: 0.07%</title></rect>
  <text x="79"  y="274" text-anchor="middle" fill="#E0E0E0" font-size="11" font-weight="bold">E</text>
  <text x="101" y="274" text-anchor="middle" fill="#E0E0E0" font-size="11" font-weight="bold">T</text>
  <text x="123" y="274" text-anchor="middle" fill="#E0E0E0" font-size="11" font-weight="bold">A</text>
  <text x="145" y="274" text-anchor="middle" fill="#E0E0E0" font-size="11" font-weight="bold">O</text>
  <text x="167" y="274" text-anchor="middle" fill="#E0E0E0" font-size="11" font-weight="bold">I</text>
  <text x="189" y="274" text-anchor="middle" fill="#E0E0E0" font-size="11" font-weight="bold">N</text>
  <text x="211" y="274" text-anchor="middle" fill="#E0E0E0" font-size="11" font-weight="bold">S</text>
  <text x="233" y="274" text-anchor="middle" fill="#E0E0E0" font-size="11" font-weight="bold">H</text>
  <text x="255" y="274" text-anchor="middle" fill="#E0E0E0" font-size="11" font-weight="bold">R</text>
  <text x="277" y="274" text-anchor="middle" fill="#E0E0E0" font-size="11" font-weight="bold">D</text>
  <text x="299" y="274" text-anchor="middle" fill="#E0E0E0" font-size="11" font-weight="bold">L</text>
  <text x="321" y="274" text-anchor="middle" fill="#E0E0E0" font-size="11" font-weight="bold">C</text>
  <text x="343" y="274" text-anchor="middle" fill="#E0E0E0" font-size="11" font-weight="bold">U</text>
  <text x="365" y="274" text-anchor="middle" fill="#E0E0E0" font-size="11" font-weight="bold">M</text>
  <text x="387" y="274" text-anchor="middle" fill="#E0E0E0" font-size="11" font-weight="bold">W</text>
  <text x="409" y="274" text-anchor="middle" fill="#E0E0E0" font-size="11" font-weight="bold">F</text>
  <text x="431" y="274" text-anchor="middle" fill="#E0E0E0" font-size="11" font-weight="bold">G</text>
  <text x="453" y="274" text-anchor="middle" fill="#E0E0E0" font-size="11" font-weight="bold">Y</text>
  <text x="475" y="274" text-anchor="middle" fill="#E0E0E0" font-size="11" font-weight="bold">P</text>
  <text x="497" y="274" text-anchor="middle" fill="#E0E0E0" font-size="11" font-weight="bold">B</text>
  <text x="519" y="274" text-anchor="middle" fill="#E0E0E0" font-size="11" font-weight="bold">V</text>
  <text x="541" y="274" text-anchor="middle" fill="#E0E0E0" font-size="11" font-weight="bold">K</text>
  <text x="563" y="274" text-anchor="middle" fill="#E0E0E0" font-size="11" font-weight="bold">J</text>
  <text x="585" y="274" text-anchor="middle" fill="#E0E0E0" font-size="11" font-weight="bold">X</text>
  <text x="607" y="274" text-anchor="middle" fill="#E0E0E0" font-size="11" font-weight="bold">Q</text>
  <text x="624" y="274" text-anchor="middle" fill="#E0E0E0" font-size="11" font-weight="bold">Z</text>
  <rect x="70"  y="284" width="10" height="8" fill="#4CAF50" rx="1"/>
  <text x="83" y="291" fill="#AAAAAA" font-size="8">≥6%</text>
  <rect x="120" y="284" width="10" height="8" fill="#FFB74D" rx="1"/>
  <text x="133" y="291" fill="#AAAAAA" font-size="8">1-5%</text>
  <rect x="175" y="284" width="10" height="8" fill="#EF9A9A" rx="1"/>
  <text x="188" y="291" fill="#AAAAAA" font-size="8">&lt;1%</text>
</svg>
